<svg width="26" height="56" viewBox="0 0 26 56" fill="none" xmlns="http://www.w3.org/2000/svg">
<circle cx="13" cy="27.8672" r="13" fill="#061F38"/>
<path d="M12.9305 26.2867C14.6291 26.2867 15.8829 26.6333 16.6918 27.3267C17.5123 28.02 17.9225 28.9444 17.9225 30.1C17.9225 30.8511 17.726 31.5444 17.3331 32.18C16.9518 32.804 16.3625 33.3067 15.5651 33.688C14.7794 34.0578 13.8029 34.2427 12.6358 34.2427C11.7807 34.2427 10.9314 34.1387 10.0878 33.9307C9.2558 33.7227 8.53936 33.428 7.93847 33.0467L9.16914 30.464C9.65447 30.7876 10.186 31.036 10.7638 31.2093C11.3531 31.3827 11.9425 31.4693 12.5318 31.4693C13.1211 31.4693 13.5891 31.3596 13.9358 31.14C14.294 30.9089 14.4731 30.5911 14.4731 30.1867C14.4731 29.7822 14.2998 29.476 13.9531 29.268C13.6065 29.06 12.994 28.956 12.1158 28.956H8.82247L9.42914 21.8667H17.1598V24.5187H12.2718L12.1158 26.2867H12.9305Z" fill="white"/>
</svg>
